<svg width="128" height="125" xmlns="http://www.w3.org/2000/svg" xmlns:xlink="http://www.w3.org/1999/xlink"><defs><path id="a" d="M0 0h128v128H0z"/></defs><g transform="translate(0 -1)" fill="none" fill-rule="evenodd"><mask id="b" fill="#fff"><use xlink:href="#a"/></mask><g stroke-width="2" mask="url(#b)" stroke="#FFF" stroke-linecap="round" stroke-linejoin="round"><path d="M17.257 124.727h93.85c-13.93-5.412-26.36-8.365-37.293-8.86-1.841-.084-5.257.657-10.248 2.223-4.348-1.56-7.412-2.301-9.192-2.224-11.029.48-23.401 3.434-37.117 8.861z"/><path d="M55.665 105.892v9.725l7.843 2.469 9.194-2.47v-9.724c-2.406 1.225-5.47 2.291-9.194 3.2-2.53-.718-5.145-1.785-7.843-3.2zM97.096 68.725l2.604.133a3.1 3.1 0 0 1 2.94 2.996c.141 4.353-.858 7.444-2.995 9.273-3.316 3.032-5.803 2.757-7.184 1.93.276-1.379 1.381-3.86 2.486-9.374 1.335-1.62 2.016-3.24 2.044-4.86a.1.1 0 0 1 .105-.098zM31.194 68.73l-2.578.128a3.172 3.172 0 0 0-3.013 3.076c-.126 4.311.873 7.376 2.998 9.193 3.316 3.032 5.833 2.757 7.215 1.93 0-1.103-1.382-4.136-2.763-9.926-1.022-1.731-1.572-3.136-1.65-4.215a.2.2 0 0 0-.209-.186z"/><path d="M33.053 73.131c2.763 11.028 8.29 29.225 30.394 35.842 16.948-3.309 27.448-15.072 31.5-35.29-3.315-1.838-6.141-7.806-8.477-17.903-14.733 17.351-27.444 15.697-44.604 0-2.182 12.389-6.05 16.248-8.813 17.351z"/><path d="M30.842 59.346c.455 10.824.455 10.499 2.21 13.785 5.828-2.67 7.242-10.773 8.832-17.233 19.205 17.697 31.468 14.905 44.462 0 1.993 6.46 3.664 14.905 8.626 17.697 2.186-2.792 2.186-3.45 2.186-14.249-15.498-8.84-42.671-13.754-66.316 0z"/><path d="M30.842 30.673c22.066-20.78 50.081-12.35 66.316.078v28.595c-19.42-10.747-45.711-12.045-66.316 0V30.673z"/><path d="M1.245 32.239l62.202-22.52 63.306 22.52a.1.1 0 0 1 .004.187l-29.6 12.032V30.673c-15.473-11.58-43.104-21.505-66.315 0v13.785l-29.6-12.033a.1.1 0 0 1 .003-.186z"/><path d="M1.061 28.442L63.409 2.016a.1.1 0 0 1 .077 0l63.452 25.875a.1.1 0 0 1 .062.092v4.203a.1.1 0 0 1-.134.094L63.481 9.732a.1.1 0 0 0-.067 0L1.134 32.279A.1.1 0 0 1 1 32.185v-3.651a.1.1 0 0 1 .061-.092z"/></g></g></svg>