<svg xmlns="http://www.w3.org/2000/svg" xmlns:xlink="http://www.w3.org/1999/xlink" width="128" height="108"><defs><path id="a" d="M0 0h128v128H0z"/></defs><g fill="none" fill-rule="evenodd" transform="translate(0 -10)"><mask id="b" fill="#fff"><use xlink:href="#a"/></mask><g stroke="#FFF" stroke-linecap="round" stroke-linejoin="round" mask="url(#b)"><g stroke-width="2" transform="translate(0 11)"><circle cx="62.512" cy="39.69" r="15.876"/><path d="M21.83 104.186c-2.346-.746-1.489-4.961 15.875-19.845 12.404-14.388 7.938-26.79 34.233-26.79 5.953-3.97 8.015-6.94 10.419-12.404 3.54-8.046 3.909-16.792 2.976-23.318-.496-3.472 1.985-4.96 4.962-2.976 5.388 5.154 4.334 24.57-.497 34.232-1.594 3.19-4.574 7.303-8.937 12.338a2 2 0 0 0-.489 1.31v38.941H50.11L48.637 88.01a.1.1 0 0 0-.166-.068C34.665 99.76 25.784 105.175 21.83 104.186zM86.821 17.86l-4.465-5.953M0 79.38h33.736m49.613 0H128"/><path d="M33.736 74.419H.992V0h126.016v74.419H83.349"/></g></g></g></svg>